<svg xmlns="http://www.w3.org/2000/svg" viewBox="0 0 1200 760" role="img" aria-labelledby="title desc">
  <title id="title">Australia destination illustration</title>
  <desc id="desc">Warm illustrated Sydney harbour and Opera House inspired scene.</desc>
  <defs>
    <linearGradient id="sky" x1="0" y1="0" x2="1" y2="1">
      <stop offset="0" stop-color="#07192f"/>
      <stop offset="0.5" stop-color="#1f6f94"/>
      <stop offset="1" stop-color="#ffb978"/>
    </linearGradient>
    <linearGradient id="harbour" x1="0" y1="0" x2="1" y2="0">
      <stop offset="0" stop-color="#0b314c"/>
      <stop offset="1" stop-color="#3aa8b5"/>
    </linearGradient>
  </defs>
  <rect width="1200" height="760" fill="url(#sky)"/>
  <circle cx="904" cy="164" r="76" fill="#ffd089"/>
  <path d="M0 528 C162 492 276 542 424 512 C574 482 708 530 860 496 C1018 462 1106 478 1200 452 L1200 760 L0 760 Z" fill="url(#harbour)"/>
  <path d="M390 474 C452 328 548 330 626 474 Z" fill="#f8efe4"/>
  <path d="M510 474 C564 292 700 322 786 474 Z" fill="#fff7ea"/>
  <path d="M646 474 C710 350 812 374 892 474 Z" fill="#f6e3ca"/>
  <rect x="356" y="474" width="570" height="30" rx="12" fill="#12314a"/>
  <path d="M112 472 C206 364 298 356 406 468" fill="none" stroke="#10263d" stroke-width="18" stroke-linecap="round"/>
  <path d="M112 472 L112 384 M406 468 L406 382" stroke="#10263d" stroke-width="16" stroke-linecap="round"/>
  <path d="M132 420 L386 420" stroke="#f4c774" stroke-width="8" opacity="0.72"/>
  <path d="M86 620 C248 584 390 648 550 612 C712 576 884 628 1090 590" fill="none" stroke="#ffffff" stroke-width="4" opacity="0.36"/>
  <path d="M930 505 L994 432 L1058 505 Z M1024 506 L1072 452 L1120 506 Z" fill="#10322e" opacity="0.9"/>
</svg>
