<svg xmlns="http://www.w3.org/2000/svg" viewBox="0 0 1200 760" role="img" aria-labelledby="title desc">
  <title id="title">Canada destination illustration</title>
  <desc id="desc">Warm illustrated Canadian mountains, lake and skyline.</desc>
  <defs>
    <linearGradient id="sky" x1="0" y1="0" x2="1" y2="1">
      <stop offset="0" stop-color="#09223b"/>
      <stop offset="0.55" stop-color="#236b88"/>
      <stop offset="1" stop-color="#ffc98c"/>
    </linearGradient>
    <linearGradient id="lake" x1="0" y1="0" x2="1" y2="0">
      <stop offset="0" stop-color="#0b344c"/>
      <stop offset="1" stop-color="#57b8c6"/>
    </linearGradient>
  </defs>
  <rect width="1200" height="760" fill="url(#sky)"/>
  <circle cx="968" cy="150" r="66" fill="#ffd69a"/>
  <path d="M0 472 L168 276 L286 432 L430 220 L608 454 L720 318 L858 468 L1000 286 L1200 500 L1200 760 L0 760 Z" fill="#10283d"/>
  <path d="M168 276 L218 374 L130 374 Z M430 220 L494 342 L354 342 Z M1000 286 L1068 392 L936 392 Z" fill="#f5f1e8" opacity="0.85"/>
  <path d="M0 546 C142 514 250 560 390 538 C524 516 618 552 780 526 C958 498 1066 522 1200 488 L1200 760 L0 760 Z" fill="url(#lake)" opacity="0.95"/>
  <rect x="588" y="304" width="18" height="192" fill="#f1c36e"/>
  <circle cx="597" cy="286" r="22" fill="#f1c36e"/>
  <rect x="525" y="410" width="38" height="84" fill="#132941"/>
  <rect x="630" y="374" width="48" height="120" fill="#132941"/>
  <rect x="700" y="430" width="42" height="64" fill="#132941"/>
  <path d="M122 530 L162 452 L202 530 Z M206 532 L248 448 L290 532 Z M926 526 L968 444 L1010 526 Z M1018 530 L1056 458 L1094 530 Z" fill="#12332f"/>
  <path d="M54 632 C214 590 332 650 506 612 C672 576 820 636 1082 596" fill="none" stroke="#ffffff" stroke-width="4" opacity="0.34"/>
</svg>
